<svg version="1.1" id="Layer_1" xmlns="http://www.w3.org/2000/svg" xmlns:xlink="http://www.w3.org/1999/xlink" x="0px" y="0px"
	 width="100%" viewBox="0 0 369 369" enable-background="new 0 0 369 369" xml:space="preserve">
<path fill="#FEFDFD" opacity="1.000000" stroke="none" 
	d="
M200.000000,370.000000 
	C133.355743,370.000000 67.211487,370.000000 1.033613,370.000000 
	C1.033613,247.064072 1.033613,124.128136 1.033613,1.096099 
	C123.894211,1.096099 246.788513,1.096099 369.841431,1.096099 
	C369.841431,123.999840 369.841431,246.999893 369.841431,370.000000 
	C313.461548,370.000000 256.980774,370.000000 200.000000,370.000000 
M129.455780,216.035431 
	C139.063263,220.632065 148.542770,225.529175 158.332092,229.698914 
	C163.245438,231.791748 164.693069,234.629654 164.660995,239.821915 
	C164.458328,272.643768 164.679886,305.468109 164.531342,338.290558 
	C164.512787,342.387878 166.241394,344.036407 169.392532,346.311493 
	C179.496292,353.606079 188.799942,353.036041 198.701920,346.003113 
	C201.641708,343.915131 202.920868,342.246948 202.905991,338.621490 
	C202.767166,304.798187 202.849533,270.974030 202.823822,237.150131 
	C202.821854,234.553131 202.937363,232.620682 205.922409,231.224991 
	C224.613968,222.485580 243.176559,213.470383 261.788574,204.560562 
	C263.362152,203.807266 264.985199,203.157303 266.659424,202.426971 
	C266.659424,219.892731 266.659424,236.780518 266.659424,253.675339 
	C262.251007,253.875458 257.919983,253.102814 254.386963,254.439499 
	C247.576492,257.016174 241.200439,260.752716 234.692810,264.102661 
	C233.927399,264.496674 232.952637,265.475830 232.942963,266.195343 
	C232.823334,275.108673 232.864838,284.024170 232.864838,292.845734 
	C257.751434,292.845734 281.832581,292.845734 306.007446,292.845734 
	C306.007446,242.120255 306.007446,191.740982 306.007446,140.884262 
	C304.031616,141.686722 302.492523,142.230927 301.021851,142.920929 
	C263.199554,160.665649 225.360535,178.375168 187.612656,196.276855 
	C184.533157,197.737289 182.234085,197.641632 179.299103,196.258804 
	C149.348419,182.147400 119.341187,168.156052 89.353180,154.123840 
	C80.054001,149.772461 70.765251,145.398804 61.108841,140.864975 
	C61.108841,191.860352 61.108841,242.243576 61.108841,292.909973 
	C85.472816,292.909973 109.534302,292.909973 134.063324,292.909973 
	C134.063324,284.046051 134.117432,275.427551 133.982483,266.812012 
	C133.968460,265.916992 133.021347,264.552032 132.187454,264.228027 
	C121.999168,260.269836 113.269234,251.965500 101.155083,253.661316 
	C100.917847,253.694534 100.623535,253.319946 100.340210,253.124863 
	C100.340210,236.438751 100.340210,219.750854 100.340210,202.221298 
	C110.234764,206.931229 119.497246,211.340302 129.455780,216.035431 
M333.620239,92.873093 
	C331.485382,91.939095 329.345001,91.017532 327.216492,90.069290 
	C281.169434,69.555740 235.106400,49.077705 189.115875,28.438175 
	C185.990646,27.035650 183.614578,27.353052 180.718491,28.684822 
	C168.623215,34.246841 156.445419,39.629803 144.287582,45.055325 
	C107.051514,61.672192 69.809906,78.276665 32.574738,94.895531 
	C31.161062,95.526482 29.791653,96.256622 27.794376,97.239311 
	C30.045918,98.185760 31.438774,98.726944 32.795147,99.347832 
	C82.429245,122.068268 132.072906,144.767990 181.657990,167.594971 
	C184.535309,168.919556 186.713516,168.877518 189.529465,167.514725 
	C197.763626,163.529724 206.178574,159.919388 214.508347,156.130722 
	C228.712158,149.670380 242.905029,143.186005 257.754517,136.414383 
	C255.949799,135.579117 254.812943,134.943024 253.603470,134.509659 
	C234.811707,127.776482 216.029999,121.013573 197.176788,114.456444 
	C195.564194,113.895584 193.281693,114.313065 191.616959,115.009209 
	C183.093048,118.573654 175.120728,116.158470 171.037430,108.523186 
	C167.184128,101.317955 169.638504,92.572029 176.791290,88.019875 
	C183.719452,83.610680 192.046921,85.539131 197.531784,92.540810 
	C198.760132,94.108856 200.654266,95.515274 202.529510,96.161682 
	C224.236191,103.644035 246.273956,110.260132 267.637421,118.607018 
	C279.585175,123.275093 289.768311,123.491806 300.824738,116.777504 
	C308.211945,112.291420 316.656219,109.546021 324.768372,105.959343 
	C325.200836,107.187981 325.499115,107.641899 325.500763,108.096878 
	C325.563721,125.591362 325.651001,143.086304 325.533539,160.579819 
	C325.524902,161.870255 324.285339,163.497086 323.157440,164.377274 
	C317.499390,168.792679 315.126984,175.224167 317.097687,181.553879 
	C318.964447,187.549728 324.805725,191.840057 331.022675,191.781586 
	C337.580170,191.719894 343.225006,187.533081 345.270630,181.213699 
	C347.277161,175.015106 344.981964,169.315292 339.199890,164.587555 
	C337.693848,163.356110 336.368561,160.915451 336.345490,159.013367 
	C336.143250,142.353989 336.231476,125.690720 336.288971,109.028801 
	C336.305664,104.189117 334.975006,98.603508 342.305206,96.725037 
	C339.652924,95.517418 337.000671,94.309807 333.620239,92.873093 
z"/>
<path fill="#E8312E" opacity="1.000000" stroke="none" 
	d="
M129.107758,215.892395 
	C119.497246,211.340302 110.234764,206.931229 100.340210,202.221298 
	C100.340210,219.750854 100.340210,236.438751 100.340210,253.124863 
	C100.623535,253.319946 100.917847,253.694534 101.155083,253.661316 
	C113.269234,251.965500 121.999168,260.269836 132.187454,264.228027 
	C133.021347,264.552032 133.968460,265.916992 133.982483,266.812012 
	C134.117432,275.427551 134.063324,284.046051 134.063324,292.909973 
	C109.534302,292.909973 85.472816,292.909973 61.108841,292.909973 
	C61.108841,242.243576 61.108841,191.860352 61.108841,140.864975 
	C70.765251,145.398804 80.054001,149.772461 89.353180,154.123840 
	C119.341187,168.156052 149.348419,182.147400 179.299103,196.258804 
	C182.234085,197.641632 184.533157,197.737289 187.612656,196.276855 
	C225.360535,178.375168 263.199554,160.665649 301.021851,142.920929 
	C302.492523,142.230927 304.031616,141.686722 306.007446,140.884262 
	C306.007446,191.740982 306.007446,242.120255 306.007446,292.845734 
	C281.832581,292.845734 257.751434,292.845734 232.864838,292.845734 
	C232.864838,284.024170 232.823334,275.108673 232.942963,266.195343 
	C232.952637,265.475830 233.927399,264.496674 234.692810,264.102661 
	C241.200439,260.752716 247.576492,257.016174 254.386963,254.439499 
	C257.919983,253.102814 262.251007,253.875458 266.659424,253.675339 
	C266.659424,236.780518 266.659424,219.892731 266.659424,202.426971 
	C264.985199,203.157303 263.362152,203.807266 261.788574,204.560562 
	C243.176559,213.470383 224.613968,222.485580 205.922409,231.224991 
	C202.937363,232.620682 202.821854,234.553131 202.823822,237.150131 
	C202.849533,270.974030 202.767166,304.798187 202.905991,338.621490 
	C202.920868,342.246948 201.641708,343.915131 198.701920,346.003113 
	C188.799942,353.036041 179.496292,353.606079 169.392532,346.311493 
	C166.241394,344.036407 164.512787,342.387878 164.531342,338.290558 
	C164.679886,305.468109 164.458328,272.643768 164.660995,239.821915 
	C164.693069,234.629654 163.245438,231.791748 158.332092,229.698914 
	C148.542770,225.529175 139.063263,220.632065 129.107758,215.892395 
z"/>
<path fill="#E8312E" opacity="1.000000" stroke="none" 
	d="
M333.984314,92.987640 
	C337.000671,94.309807 339.652924,95.517418 342.305206,96.725037 
	C334.975006,98.603508 336.305664,104.189117 336.288971,109.028801 
	C336.231476,125.690720 336.143250,142.353989 336.345490,159.013367 
	C336.368561,160.915451 337.693848,163.356110 339.199890,164.587555 
	C344.981964,169.315292 347.277161,175.015106 345.270630,181.213699 
	C343.225006,187.533081 337.580170,191.719894 331.022675,191.781586 
	C324.805725,191.840057 318.964447,187.549728 317.097687,181.553879 
	C315.126984,175.224167 317.499390,168.792679 323.157440,164.377274 
	C324.285339,163.497086 325.524902,161.870255 325.533539,160.579819 
	C325.651001,143.086304 325.563721,125.591362 325.500763,108.096878 
	C325.499115,107.641899 325.200836,107.187981 324.768372,105.959343 
	C316.656219,109.546021 308.211945,112.291420 300.824738,116.777504 
	C289.768311,123.491806 279.585175,123.275093 267.637421,118.607018 
	C246.273956,110.260132 224.236191,103.644035 202.529510,96.161682 
	C200.654266,95.515274 198.760132,94.108856 197.531784,92.540810 
	C192.046921,85.539131 183.719452,83.610680 176.791290,88.019875 
	C169.638504,92.572029 167.184128,101.317955 171.037430,108.523186 
	C175.120728,116.158470 183.093048,118.573654 191.616959,115.009209 
	C193.281693,114.313065 195.564194,113.895584 197.176788,114.456444 
	C216.029999,121.013573 234.811707,127.776482 253.603470,134.509659 
	C254.812943,134.943024 255.949799,135.579117 257.754517,136.414383 
	C242.905029,143.186005 228.712158,149.670380 214.508347,156.130722 
	C206.178574,159.919388 197.763626,163.529724 189.529465,167.514725 
	C186.713516,168.877518 184.535309,168.919556 181.657990,167.594971 
	C132.072906,144.767990 82.429245,122.068268 32.795147,99.347832 
	C31.438774,98.726944 30.045918,98.185760 27.794376,97.239311 
	C29.791653,96.256622 31.161062,95.526482 32.574738,94.895531 
	C69.809906,78.276665 107.051514,61.672192 144.287582,45.055325 
	C156.445419,39.629803 168.623215,34.246841 180.718491,28.684822 
	C183.614578,27.353052 185.990646,27.035650 189.115875,28.438175 
	C235.106400,49.077705 281.169434,69.555740 327.216492,90.069290 
	C329.345001,91.017532 331.485382,91.939095 333.984314,92.987640 
z"/>
</svg>